# xmcd
#
# Track frame offsets: 
#        150
#        11350
#        23910
#        36035
#        48347
#        58405
#        69865
#        83657
#        96145
#        106192
#        121462
#        133180
#        142910
#        153835
#        172207
#        184095
#        194905
#        208117
#        220885
#        232997
#        244622
#        256640
#        269707
#        279832
#
# Disc length: 3902 seconds
#
# Revision: 0
# Processed by: cddbd v1.5PL3 Copyright (c) Steve Scherf et al.
# Submitted via: ExactAudioCopy v0.95a5
#
DISCID=550f3c18
DTITLE=Various Artist - Best Of Country Stars On LP
DYEAR=1997
DGENRE=Country
TTITLE0=Hello Darlin'/Conway Twitty
TTITLE1=Wild Side/Hank Thompson
TTITLE2=Okie From Muskogee/Merle Haggard
TTITLE3=Lonesome 7-7203/Hawkshaw Hawkins
TTITLE4=Walk On By/Leroy VanDyke
TTITLE5=Window Up Above/George Jones
TTITLE6=The Ride/David Allan Coe
TTITLE7=Folsom Prison Blues/Johnny Cash
TTITLE8=Blue/Kenny Roberts
TTITLE9=Phantom 309/Red Sovine
TTITLE10=Am I That Easy To Forget/Carl Belew
TTITLE11=Deep Water/Carl Smith
TTITLE12=Does My Ring Hurt Your Finger/Charley Pride
TTITLE13=For The Good Times/Ray Price
TTITLE14=Take This Job And Shove It/Johnny Payckeck
TTITLE15=There Goes My Everything/Jack Greene
TTITLE16=B.J. The D.J./Stonewall Jackson
TTITLE17=Blues, Stay Away From Me/Delmore Brothers
TTITLE18=(Jeannie Marie) You Were A Lady/Tommy Overstreet
TTITLE19=Jole' Blon/Moon Mullican
TTITLE20=Shutters And Boards/Jerry Wallace
TTITLE21=All For The Love Of A Girl/Claude King
TTITLE22=Stateside/Mel Tillis
TTITLE23=It Started All Over Again/David Houston
EXTD=
EXTT0=
EXTT1=
EXTT2=
EXTT3=
EXTT4=
EXTT5=
EXTT6=
EXTT7=
EXTT8=
EXTT9=
EXTT10=
EXTT11=
EXTT12=
EXTT13=
EXTT14=
EXTT15=
EXTT16=
EXTT17=
EXTT18=
EXTT19=
EXTT20=
EXTT21=
EXTT22=
EXTT23=
PLAYORDER=
